<?xml version="1.0" standalone="no"?>
<!DOCTYPE svg PUBLIC "-//W3C//DTD SVG 20010904//EN"
 "http://www.w3.org/TR/2001/REC-SVG-20010904/DTD/svg10.dtd">
<svg version="1.0" xmlns="http://www.w3.org/2000/svg"
 width="1500.000000pt" height="1500.000000pt" viewBox="0 0 1500.000000 1500.000000"
 preserveAspectRatio="xMidYMid meet">
<g transform="translate(0.000000,1500.000000) scale(0.100000,-0.100000)"
fill="black" stroke="none">
<path d="M6380 14534 c-8 -2 -85 -11 -170 -19 -167 -15 -360 -49 -510 -88
-559 -147 -1071 -391 -1510 -721 -247 -185 -570 -507 -750 -746 -35 -47 -75
-101 -90 -120 -26 -35 -96 -137 -115 -168 -5 -9 -25 -41 -44 -72 -63 -101
-199 -366 -241 -470 -12 -30 -26 -64 -32 -74 -8 -16 -26 -64 -99 -266 -16 -46
-90 -324 -105 -400 -61 -302 -86 -773 -57 -1075 17 -167 40 -357 47 -375 3 -8
10 -42 15 -75 11 -76 69 -280 127 -455 170 -503 449 -967 843 -1400 91 -100
325 -325 401 -385 242 -191 421 -313 618 -422 206 -114 287 -150 542 -243 63
-23 123 -46 134 -52 24 -13 263 -86 341 -104 130 -31 290 -59 485 -87 112 -16
743 -16 865 0 295 39 396 59 625 125 74 22 149 43 165 48 190 54 599 235 855
378 452 253 859 602 1191 1023 174 220 389 581 491 824 131 311 198 516 242
745 55 282 76 496 76 775 0 260 -13 441 -45 610 -13 72 -27 146 -30 165 -53
302 -247 810 -424 1108 -17 29 -31 55 -31 58 0 3 -47 76 -104 162 -164 248
-324 440 -552 662 -303 296 -563 486 -940 688 -95 51 -175 92 -178 92 -4 0
-34 13 -69 29 -34 16 -80 36 -102 44 -22 8 -76 29 -120 46 -98 38 -351 113
-460 136 -44 9 -107 23 -140 30 -33 8 -80 16 -105 20 -25 3 -63 10 -85 15 -80
19 -461 40 -698 39 -133 -1 -249 -3 -257 -5z m461 -294 c18 -10 19 -27 19
-523 0 -283 4 -518 9 -526 5 -8 32 -16 63 -19 94 -7 88 -46 88 537 0 425 2
510 14 520 11 9 35 9 98 1 186 -24 301 -43 393 -65 l50 -11 3 -224 c1 -144 6
-228 13 -237 14 -17 120 -18 137 -1 8 8 12 68 12 204 0 158 3 194 15 204 15
13 20 11 290 -86 145 -53 482 -221 620 -309 28 -18 84 -54 125 -80 154 -99
359 -264 496 -400 303 -298 513 -567 678 -865 84 -150 256 -525 256 -555 0 -4
6 -21 13 -38 24 -56 38 -100 62 -190 13 -48 27 -92 31 -98 14 -24 64 -293 85
-459 6 -52 13 -198 16 -325 4 -191 1 -259 -17 -405 -28 -237 -47 -352 -71
-435 -21 -72 -26 -92 -52 -185 -9 -30 -25 -80 -37 -110 -11 -30 -31 -84 -44
-120 -13 -36 -33 -85 -44 -110 -11 -25 -32 -73 -46 -107 -85 -205 -281 -537
-420 -712 -161 -201 -404 -461 -536 -573 -132 -111 -179 -148 -189 -148 -21 0
-22 49 -7 199 12 116 16 276 17 689 1 295 4 548 8 562 9 33 67 71 144 94 326
100 434 149 568 262 127 105 205 219 270 395 48 131 69 218 69 289 0 72 -4 81
-40 100 -25 14 -33 16 -200 51 -104 22 -108 23 -260 46 -156 23 -249 48 -277
75 -14 13 -46 55 -71 93 -65 98 -154 199 -208 235 -65 45 -188 104 -269 129
-38 12 -77 26 -86 30 -8 5 -41 14 -73 21 -47 10 -59 16 -67 38 -6 15 -13 147
-16 295 -7 287 -9 301 -56 279 -57 -26 -206 -185 -282 -301 -47 -70 -59 -61
-143 98 -41 77 -83 149 -93 160 -34 37 -49 29 -125 -69 -118 -152 -204 -315
-260 -492 l-39 -121 -84 -61 c-78 -57 -284 -224 -394 -321 -40 -35 -48 -47
-45 -71 3 -27 6 -29 43 -28 22 1 91 12 153 26 62 14 114 22 116 19 3 -5 -118
-118 -149 -139 -19 -12 -103 -125 -129 -172 -64 -116 -113 -252 -93 -259 6 -2
13 1 14 6 7 20 95 148 121 176 14 15 28 24 31 20 4 -5 4 -79 1 -165 l-5 -156
-70 -75 c-38 -40 -104 -112 -145 -158 -101 -113 -463 -475 -524 -524 -125
-101 -132 -120 -25 -69 163 76 219 100 259 112 19 6 73 24 119 41 88 33 111
37 111 21 0 -5 -58 -67 -128 -137 -173 -173 -236 -270 -372 -568 -25 -55 -106
-299 -119 -360 -18 -85 -23 -142 -14 -148 6 -4 34 28 64 70 71 101 287 313
318 313 12 0 7 -57 -9 -115 -5 -16 -12 -52 -16 -80 -7 -57 -37 -173 -52 -201
-18 -36 -42 -95 -42 -105 0 -6 -14 -37 -30 -71 -32 -65 -120 -321 -139 -403
-6 -27 -12 -82 -13 -121 -2 -64 1 -75 31 -123 41 -68 38 -87 -14 -83 -21 2
-58 12 -82 23 -48 22 -51 33 -31 118 9 39 9 63 -1 108 -18 84 -52 197 -61 207
-15 15 -67 -118 -95 -244 -10 -41 -25 -94 -34 -118 -16 -42 -16 -43 -56 -37
-22 4 -60 13 -85 20 -25 7 -61 17 -80 21 -19 3 -60 17 -90 29 -30 13 -84 31
-120 41 -36 10 -85 27 -110 39 -44 20 -45 22 -43 63 1 24 9 57 17 74 9 17 16
36 16 43 0 28 151 352 243 520 79 146 181 320 208 355 14 19 58 82 98 140 39
58 85 122 102 142 48 57 36 71 -54 64 -192 -15 -299 -18 -296 -8 4 10 82 75
141 119 36 25 164 151 303 295 121 125 146 154 170 193 11 17 39 56 62 87 24
31 43 59 43 63 0 3 13 25 29 48 30 45 89 150 129 232 72 147 193 398 220 455
73 156 76 180 36 250 -15 25 -90 162 -166 305 -254 472 -261 485 -306 560 -20
33 -46 74 -59 91 -12 16 -32 60 -43 96 -34 112 -177 429 -250 558 -163 284
-365 519 -505 585 -74 35 -82 33 -109 -28 -57 -129 -95 -291 -136 -584 -7 -45
-18 -87 -26 -93 -13 -12 -317 -16 -345 -5 -8 3 -21 18 -31 33 -113 186 -279
352 -355 352 -71 0 -202 -312 -258 -613 -13 -71 -29 -113 -79 -210 -66 -126
-102 -211 -132 -310 -17 -56 -17 -61 -1 -107 20 -57 21 -84 5 -97 -7 -5 -44
-22 -82 -38 -81 -34 -419 -204 -476 -240 -22 -14 -42 -25 -45 -25 -13 0 -116
-83 -131 -105 -18 -28 -28 -4 93 -230 132 -246 138 -257 178 -325 84 -141 199
-288 263 -335 103 -75 138 -88 247 -93 55 -2 146 1 203 7 120 13 133 9 157
-51 14 -36 16 -60 10 -153 -4 -60 -9 -157 -10 -215 -6 -258 -43 -929 -55 -999
-6 -30 -10 -98 -10 -152 0 -107 -5 -129 -27 -129 -44 0 -477 424 -599 586 -20
27 -49 63 -64 79 -27 29 -159 221 -230 335 -68 109 -192 352 -231 454 -11 28
-29 71 -41 96 -38 82 -106 293 -146 455 -46 185 -61 262 -73 383 -4 48 -14
139 -20 202 -14 135 -13 391 2 505 5 44 14 121 19 170 5 50 15 113 21 140 58
265 80 345 139 514 32 91 70 190 84 218 14 29 26 56 26 60 0 11 105 218 169
333 77 138 177 284 332 485 145 189 360 398 618 604 104 83 263 191 281 191 6
0 10 -98 10 -255 0 -303 -3 -295 105 -295 43 0 67 4 70 13 3 6 6 154 8 328 2
259 5 319 17 333 29 36 468 240 494 230 13 -5 26 -301 26 -597 l0 -129 -59
-58 c-43 -42 -62 -69 -67 -95 -26 -138 65 -254 199 -255 101 0 169 51 203 153
15 45 15 53 -1 103 -10 34 -33 72 -61 103 l-44 49 0 395 c0 310 3 397 13 405
7 6 55 22 107 36 52 14 135 37 184 51 49 14 103 25 120 23 l31 -3 5 -795 c4
-628 8 -800 18 -818 7 -12 25 -39 39 -60 21 -32 24 -44 20 -91 -8 -76 13 -123
63 -146 33 -15 44 -16 68 -6 47 20 83 64 89 110 5 37 1 48 -43 113 -27 39 -55
79 -62 88 -10 13 -11 179 -5 826 l8 809 25 12 c14 6 75 13 135 15 l110 3 0
-545 c0 -530 -1 -547 -20 -574 -58 -81 -68 -136 -40 -215 12 -36 120 -187 234
-331 20 -25 45 -58 57 -75 11 -16 43 -61 70 -100 l49 -70 3 -189 3 -190 -60
-57 c-72 -69 -93 -113 -92 -194 0 -74 18 -119 66 -167 112 -112 308 -79 380
62 60 118 9 271 -111 338 -16 9 -19 37 -25 251 -9 268 -10 273 -82 358 -65 78
-212 265 -232 296 -17 27 -18 31 -2 75 30 82 21 152 -24 195 -18 17 -19 43
-19 536 0 285 -3 532 -6 548 -10 51 13 63 122 63 53 0 104 -5 115 -10z m-1360
-1129 c36 -36 36 -51 3 -90 -32 -38 -65 -40 -93 -5 -28 35 -26 69 4 99 32 32
50 31 86 -4z m159 -909 c63 -75 121 -168 190 -307 57 -116 66 -142 90 -250 6
-27 18 -71 26 -96 19 -60 16 -214 -5 -214 -7 0 -28 27 -45 60 -18 33 -54 101
-81 150 -26 50 -78 148 -114 219 -36 72 -71 131 -78 134 -6 2 -30 -30 -53 -71
-27 -50 -48 -77 -63 -81 -20 -5 -93 7 -103 17 -6 6 15 151 31 217 7 30 24 113
37 184 12 71 29 136 36 143 12 11 20 8 51 -19 20 -18 57 -57 81 -86z m1317
-454 c27 -30 24 -95 -6 -119 -47 -38 -113 -16 -125 42 -9 46 2 76 35 92 36 17
72 12 96 -15z m-2107 -272 c0 -34 7 -85 15 -112 13 -42 25 -57 87 -106 79 -62
226 -168 234 -168 5 0 96 -58 244 -156 202 -133 402 -367 462 -537 29 -83 38
-247 14 -266 -13 -11 -23 -6 -71 37 -61 54 -120 90 -131 79 -4 -3 -1 -26 5
-51 17 -70 14 -195 -8 -263 -66 -208 -221 -374 -496 -532 -107 -62 -250 -171
-250 -191 0 -37 123 -20 375 52 75 21 150 34 150 26 0 -2 -53 -58 -118 -124
-116 -117 -189 -212 -251 -328 -36 -67 -38 -82 -14 -108 15 -17 15 -24 4 -69
-25 -97 -42 -241 -57 -476 -6 -91 -4 -104 11 -109 10 -4 27 4 48 23 18 16 47
40 65 52 28 20 33 20 38 6 4 -8 1 -34 -6 -58 -6 -23 -15 -58 -20 -77 -48 -189
-60 -236 -74 -311 -8 -48 -19 -139 -22 -203 -8 -134 -5 -131 -98 -87 -34 16
-83 39 -111 52 -27 13 -69 36 -91 51 -23 15 -45 28 -48 28 -14 0 -173 100
-190 119 -14 16 -17 30 -12 68 4 26 9 77 12 113 3 36 9 74 14 85 5 11 14 76
20 145 5 69 15 166 20 215 6 50 13 116 15 149 2 32 8 72 14 90 5 17 12 78 16
136 4 58 8 119 10 135 2 17 11 122 20 235 9 113 20 257 25 320 11 127 34 236
56 261 22 25 -3 31 -69 17 -110 -23 -119 21 -12 60 90 33 271 125 358 182 96
64 89 75 -43 73 -97 -1 -116 -5 -255 -51 -82 -28 -172 -60 -200 -72 -27 -13
-81 -33 -120 -46 -38 -12 -103 -34 -143 -48 -156 -55 -280 -25 -402 97 -87 86
-210 307 -210 376 0 26 7 35 51 60 27 15 79 53 114 82 56 48 64 58 64 90 1 30
-6 43 -36 69 -36 32 -36 32 -130 28 -91 -4 -93 -3 -71 13 12 10 88 50 168 91
206 104 430 240 430 260 0 6 -13 30 -29 54 -43 63 -51 101 -35 163 15 61 128
231 153 231 11 0 23 -23 41 -78 20 -59 30 -77 45 -77 13 0 23 13 33 45 22 66
88 148 162 198 99 68 202 117 223 105 4 -2 7 -32 7 -67z m2951 -461 c-5 -22
-17 -76 -26 -120 -9 -44 -21 -97 -26 -117 -5 -21 -13 -90 -16 -153 -3 -64 -10
-118 -14 -121 -11 -6 -60 19 -80 42 -30 34 -31 76 -5 205 31 151 70 266 127
379 l44 85 3 -80 c2 -44 -1 -98 -7 -120z m1010 -233 c84 -41 169 -123 246
-237 95 -141 111 -152 268 -176 33 -5 67 -12 75 -15 20 -9 102 -25 270 -55 96
-17 100 -21 100 -84 0 -46 5 -60 29 -87 16 -18 30 -42 32 -53 9 -65 -53 -178
-150 -275 -91 -90 -212 -155 -365 -195 -54 -13 -102 -27 -106 -30 -15 -9 -148
-41 -250 -60 -52 -9 -105 -21 -118 -26 -13 -5 -31 -9 -42 -9 -22 0 -53 -28
-45 -41 15 -23 25 -1208 10 -1211 -10 -3 -21 16 -62 112 l-28 64 -8 -44 c-6
-28 -5 -63 1 -95 10 -43 17 -125 38 -385 2 -30 7 -98 10 -151 l6 -97 -53 -34
c-67 -43 -175 -102 -254 -140 -33 -16 -67 -33 -75 -38 -20 -13 -98 -50 -104
-50 -3 0 -42 -17 -88 -39 -46 -21 -119 -51 -163 -66 -44 -15 -97 -34 -118 -42
-60 -21 -70 -9 -91 104 -10 54 -22 103 -26 108 -4 6 -12 38 -19 72 -20 104
-116 386 -171 501 -47 98 -57 132 -40 132 26 0 180 -178 263 -302 64 -96 80
-100 71 -20 -4 31 -10 62 -14 67 -4 6 -11 26 -15 45 -8 40 -8 41 -110 360 -41
129 -80 260 -86 290 -18 94 -40 222 -49 290 -5 36 -13 92 -19 125 -6 33 -11
83 -11 110 0 28 -4 64 -9 82 -5 17 -12 90 -16 162 -10 176 1 175 73 -9 121
-309 236 -597 242 -605 3 -5 17 -46 29 -90 12 -44 29 -98 38 -120 30 -78 54
-201 59 -300 3 -55 7 -115 10 -134 l5 -34 22 21 c44 45 65 434 38 712 -6 69
-16 133 -21 143 -19 32 9 18 30 -15 38 -61 160 -316 160 -335 0 -27 16 -47 30
-38 10 6 12 44 7 164 -6 165 -20 245 -67 376 -15 44 -36 107 -45 140 -9 33
-23 74 -30 90 -7 17 -15 39 -18 50 -3 11 -15 54 -27 95 -20 70 -41 208 -41
275 -1 54 12 149 26 200 27 99 27 105 6 105 -11 0 -23 -4 -26 -10 -10 -17 -35
-11 -35 8 0 49 104 205 276 412 41 49 75 92 152 189 12 16 22 37 22 46 0 16
-8 17 -77 11 -43 -3 -94 -9 -113 -12 l-35 -5 25 20 c14 11 34 23 45 27 11 3
49 17 85 32 112 44 197 61 290 59 72 -3 95 -8 151 -35z"/>
<path d="M7343 13548 c-8 -14 -6 -850 3 -880 5 -16 32 -17 300 -20 l296 -3 20
-27 c18 -25 26 -28 82 -28 56 0 64 3 88 30 l26 30 295 0 c260 0 296 2 301 16
3 9 6 204 6 435 0 406 -1 420 -20 439 -20 20 -33 20 -704 20 -537 0 -687 -3
-693 -12z"/>
<path d="M4490 13077 c-84 -25 -133 -88 -131 -169 4 -181 242 -254 383 -118
47 45 49 50 46 96 -3 44 -5 48 -35 56 -21 6 -43 24 -67 59 -26 35 -50 56 -82
70 -50 21 -63 22 -114 6z m114 -118 c37 -29 35 -70 -5 -103 -17 -14 -39 -26
-49 -26 -54 0 -83 103 -38 134 31 22 60 20 92 -5z"/>
<path d="M9115 12843 c-39 -10 -45 -23 -45 -103 0 -56 4 -81 15 -90 21 -18
167 -19 188 -1 13 10 17 31 17 97 0 72 -3 85 -19 94 -20 10 -118 12 -156 3z"/>
<path d="M9325 12560 c-54 -8 -105 -38 -132 -80 -18 -26 -23 -47 -23 -101 l0
-68 65 -66 65 -65 0 -301 0 -300 -28 -27 c-73 -69 -90 -145 -49 -217 28 -50
76 -82 134 -91 87 -13 163 29 203 111 21 43 21 47 6 93 -10 29 -32 64 -56 87
l-40 39 0 310 0 310 43 61 c38 55 42 65 42 121 0 49 -5 68 -27 102 -43 64
-117 94 -203 82z m71 -108 c16 -10 34 -48 34 -71 0 -27 -48 -63 -74 -55 -50
14 -72 79 -39 116 16 18 59 24 79 10z"/>
<path d="M3906 12525 c-51 -18 -92 -59 -112 -111 -15 -40 -15 -46 1 -87 57
-150 229 -166 315 -30 44 68 42 120 -7 173 -20 23 -43 45 -52 49 -33 17 -106
20 -145 6z m92 -87 c19 -19 14 -73 -9 -94 -19 -17 -23 -17 -47 -3 -30 16 -42
70 -21 95 14 17 61 18 77 2z"/>
<path d="M7483 12480 c-23 -13 -33 -27 -33 -44 0 -28 -35 -45 -54 -26 -8 9 -5
16 13 31 28 23 22 49 -12 49 -30 0 -66 -34 -73 -70 -4 -19 -14 -30 -30 -34
-26 -7 -78 -76 -66 -88 12 -12 149 -18 184 -7 19 5 46 5 67 0 20 -5 65 -6 101
-3 58 6 65 9 70 32 5 20 13 26 43 28 44 4 53 -22 12 -32 -49 -12 -13 -26 68
-26 74 0 85 2 110 25 31 29 35 62 10 80 -14 11 -15 16 -3 44 17 43 3 56 -59
55 -53 0 -98 -26 -103 -59 -2 -15 -12 -21 -40 -23 -22 -2 -38 1 -38 7 0 6 8
11 19 11 24 0 43 23 35 44 -4 11 -18 16 -48 16 -50 -1 -76 -19 -76 -53 0 -29
-34 -47 -54 -27 -8 8 -7 15 7 25 22 16 19 58 -3 63 -8 1 -30 -7 -47 -18z m337
-60 c0 -5 -7 -10 -15 -10 -8 0 -15 5 -15 10 0 6 7 10 15 10 8 0 15 -4 15 -10z
m-317 -36 c-7 -19 13 -34 45 -34 47 0 15 -25 -39 -30 -84 -8 -222 3 -227 18
-3 9 19 12 87 12 82 0 91 2 91 18 0 23 8 32 31 32 13 0 16 -5 12 -16z m311
-30 c26 -10 18 -24 -14 -24 -30 0 -41 14 -17 23 6 3 13 6 14 6 1 1 8 -2 17 -5z"/>
<path d="M7963 12490 c-20 -8 -22 -16 -21 -67 0 -35 7 -65 15 -75 13 -14 12
-18 -6 -28 -12 -6 -19 -15 -16 -20 7 -12 452 -12 459 -1 3 5 -1 14 -9 21 -21
18 -9 30 30 30 43 0 52 -14 19 -29 -39 -17 -19 -31 46 -31 80 0 91 26 18 44
-21 5 -28 12 -28 30 0 14 -10 30 -25 40 -18 12 -24 23 -20 36 7 22 -23 44 -72
53 -38 7 -68 -16 -57 -42 10 -22 21 -110 16 -116 -13 -13 -42 -3 -42 14 0 10
-7 24 -14 31 -8 6 -16 30 -18 53 -2 35 -8 44 -32 56 -22 10 -34 11 -53 2 -24
-11 -25 -15 -19 -69 5 -37 14 -63 26 -73 25 -21 16 -29 -34 -29 -51 0 -73 12
-54 28 9 7 14 34 13 79 l0 68 -50 2 c-27 1 -60 -2 -72 -7z m97 -70 c0 -16 -27
-23 -55 -16 -39 10 -29 26 15 26 22 0 40 -5 40 -10z"/>
<path d="M8457 12483 c-16 -15 -4 -40 33 -66 22 -16 40 -35 40 -43 0 -8 14
-20 31 -26 28 -10 29 -11 14 -28 -15 -17 -15 -19 2 -23 43 -13 241 -11 261 2
10 6 7 18 -17 53 -17 25 -31 51 -31 56 0 6 -16 27 -37 47 -31 30 -43 35 -84
35 -76 0 -73 -15 14 -85 57 -45 61 -65 12 -65 -27 0 -35 4 -35 18 0 10 -11 25
-25 32 -14 8 -28 24 -31 37 -10 36 -51 63 -99 63 -23 0 -45 -3 -48 -7z"/>
<path d="M7702 12218 c-15 -15 -16 -53 -2 -79 10 -18 25 -19 366 -19 394 0
374 -4 357 67 l-9 38 -350 3 c-264 2 -353 -1 -362 -10z"/>
<path d="M9825 11871 c-34 -14 -81 -70 -96 -113 -12 -38 -11 -43 16 -95 15
-30 44 -66 64 -81 20 -15 39 -31 43 -37 4 -5 8 -140 8 -300 0 -341 0 -339 77
-343 l52 -3 10 38 c7 23 11 157 11 335 l0 296 24 29 c36 43 56 88 56 126 0 46
-49 119 -93 140 -37 18 -136 22 -172 8z m117 -108 c10 -9 18 -27 18 -40 0 -26
-32 -63 -55 -63 -8 0 -24 9 -35 20 -53 53 16 134 72 83z"/>
<path d="M3465 11853 c-16 -8 -38 -23 -49 -32 -26 -23 -66 -105 -66 -136 0
-32 40 -113 69 -139 21 -19 21 -26 21 -335 0 -174 4 -322 9 -330 8 -12 21 -9
75 18 67 33 78 48 74 101 -1 14 -1 136 0 272 l2 247 39 28 c80 57 112 144 77
211 -47 91 -171 138 -251 95z m99 -94 c43 -20 43 -76 -1 -104 -31 -21 -58 -12
-73 25 -18 43 -2 73 47 89 1 1 13 -4 27 -10z"/>
<path d="M4732 11173 c-7 -3 -32 -42 -54 -87 -40 -79 -41 -83 -42 -189 -1 -86
2 -110 14 -117 8 -5 69 -10 135 -10 116 1 121 2 160 30 79 57 200 137 218 143
21 8 13 27 -11 27 -68 1 -228 78 -344 167 -31 23 -58 43 -60 42 -2 0 -9 -3
-16 -6z m171 -215 c36 -26 35 -59 -4 -97 -35 -35 -67 -39 -110 -14 -55 32 -47
115 13 131 40 10 64 5 101 -20z"/>
<path d="M8674 10614 c-95 -65 -124 -88 -124 -103 0 -10 36 -36 87 -66 108
-61 144 -64 216 -16 26 18 47 40 47 50 0 24 -143 161 -168 161 -10 0 -37 -12
-58 -26z m84 -80 c44 -31 17 -81 -38 -69 -52 11 -59 61 -10 78 23 8 24 8 48
-9z"/>
<path d="M6358 6439 c-17 -9 -18 -69 -18 -1030 0 -684 3 -1027 10 -1040 10
-18 23 -19 199 -19 163 0 190 2 195 16 3 9 6 476 6 1038 0 782 -3 1025 -12
1034 -15 15 -355 16 -380 1z"/>
<path d="M8566 6434 c-14 -14 -16 -121 -16 -1030 0 -681 3 -1022 10 -1035 10
-18 23 -19 200 -19 134 0 191 3 196 12 4 6 7 104 6 217 -1 146 2 214 11 233
15 32 153 142 170 135 7 -3 75 -93 152 -201 220 -308 265 -370 283 -383 11
-10 74 -13 229 -13 241 0 245 1 196 67 -15 21 -31 40 -34 43 -3 3 -48 64 -101
135 -52 72 -172 234 -266 360 -95 125 -172 237 -172 247 0 16 90 120 280 323
25 28 93 102 150 165 57 63 107 117 110 120 4 3 10 15 14 28 l7 22 -217 0
-218 0 -61 -63 c-63 -66 -317 -343 -377 -412 -19 -22 -58 -71 -87 -110 -29
-38 -58 -70 -64 -70 -8 0 -12 18 -11 50 1 28 2 304 3 614 1 451 -1 566 -11
573 -7 4 -93 8 -190 8 -147 0 -179 -3 -192 -16z"/>
<path d="M2117 6313 c-4 -3 -7 -441 -7 -973 0 -738 3 -969 12 -978 8 -8 62
-12 179 -12 143 0 168 2 173 16 11 27 6 1109 -5 1284 -6 92 -9 178 -7 191 5
39 40 -44 92 -226 62 -210 105 -352 121 -395 7 -19 20 -62 30 -95 10 -33 24
-78 31 -100 7 -22 48 -155 90 -295 82 -275 105 -348 117 -367 12 -19 360 -18
376 1 11 13 144 409 376 1121 103 313 121 362 133 351 3 -3 5 -337 6 -743 l1
-738 176 -3 c140 -2 179 0 188 11 8 11 10 266 9 983 l-3 969 -278 3 -277 2
-14 -32 c-8 -18 -35 -98 -61 -178 -25 -80 -52 -161 -60 -180 -7 -19 -55 -163
-105 -320 -188 -582 -248 -755 -264 -758 -9 -2 -18 2 -20 10 -3 7 -28 90 -56
183 -28 94 -57 188 -64 210 -7 22 -21 67 -31 100 -10 33 -23 76 -30 95 -20 56
-40 122 -105 340 -34 113 -74 243 -89 290 -15 47 -36 112 -46 145 -9 33 -21
67 -25 75 -6 13 -49 15 -282 18 -151 1 -277 -1 -281 -5z"/>
<path d="M5100 5875 c-96 -15 -170 -34 -250 -65 -30 -12 -67 -26 -83 -32 -49
-18 -48 -35 7 -148 28 -58 59 -116 68 -129 l16 -23 79 30 c152 58 190 66 320
67 119 0 122 -1 165 -30 24 -18 51 -48 62 -70 25 -53 33 -156 14 -172 -9 -8
-91 -16 -219 -23 -225 -12 -341 -33 -446 -80 -127 -58 -199 -132 -236 -244
-25 -72 -23 -254 2 -334 49 -151 158 -250 313 -283 81 -18 299 -6 372 20 65
23 150 82 208 144 42 44 62 44 78 0 13 -35 27 -68 48 -113 l17 -35 130 -3
c113 -2 131 0 142 15 17 23 18 945 1 1077 -31 249 -178 388 -453 431 -108 17
-239 17 -355 0z m400 -840 c9 -10 11 -42 8 -103 -5 -117 -37 -186 -111 -241
-58 -43 -75 -50 -154 -60 -155 -21 -243 40 -243 169 0 142 89 217 285 239 132
14 201 13 215 -4z"/>
<path d="M7540 5875 c-227 -29 -365 -120 -425 -277 -14 -37 -16 -69 -14 -160
4 -99 8 -120 32 -170 51 -104 157 -184 359 -271 129 -55 247 -115 284 -144 65
-49 65 -147 1 -190 -97 -66 -357 -41 -610 59 -26 10 -52 16 -57 13 -6 -4 -10
-73 -10 -164 l0 -159 58 -20 c141 -52 175 -56 417 -57 212 0 236 2 308 23 250
74 357 221 345 473 -8 172 -79 273 -253 362 -51 26 -91 44 -245 111 -130 56
-182 88 -207 125 -31 46 -29 77 7 111 24 23 44 30 95 35 122 13 220 -4 374
-68 91 -38 95 -36 134 53 65 152 79 190 74 202 -4 12 -24 21 -137 63 -86 31
-301 66 -395 64 -22 -1 -83 -7 -135 -14z"/>
<path d="M10066 5844 c-6 -16 61 -193 217 -574 19 -47 60 -150 92 -230 56
-144 105 -267 130 -325 7 -16 21 -50 30 -75 10 -25 23 -58 30 -75 80 -194 80
-193 66 -243 -33 -125 -113 -233 -203 -273 -46 -20 -69 -24 -168 -24 l-115 0
-3 -152 -3 -152 38 -11 c21 -6 79 -13 128 -16 270 -19 500 112 618 349 25 50
52 110 60 132 15 42 37 100 62 163 76 196 111 291 164 437 34 94 75 202 90
240 16 39 34 86 40 105 28 78 233 627 248 661 31 74 33 74 -194 77 -238 3
-212 18 -267 -153 -20 -60 -41 -123 -47 -140 -6 -16 -14 -43 -19 -60 -8 -30
-22 -69 -46 -135 -31 -85 -135 -423 -156 -505 -19 -79 -23 -86 -29 -60 -4 17
-15 64 -24 105 -26 111 -294 912 -312 932 -14 16 -38 18 -218 18 -176 0 -204
-2 -209 -16z"/>
<path d="M4241 3436 c-8 -9 -10 -168 -9 -572 l3 -559 110 0 110 0 3 559 c1
404 -1 563 -9 572 -8 10 -38 14 -104 14 -66 0 -96 -4 -104 -14z"/>
<path d="M4744 3436 c-85 -37 -62 -184 33 -202 109 -21 190 65 146 155 -10 20
-29 41 -43 48 -33 16 -97 16 -136 -1z"/>
<path d="M8320 3443 c-57 -22 -81 -86 -57 -146 38 -90 189 -89 226 2 32 75
-15 142 -101 147 -29 2 -60 1 -68 -3z"/>
<path d="M9634 3440 c-32 -13 -54 -50 -54 -92 0 -55 15 -83 53 -101 91 -44
187 6 187 96 0 48 -22 82 -62 96 -36 13 -94 13 -124 1z"/>
<path d="M11625 3438 c-3 -7 -4 -265 -3 -573 l3 -560 108 -3 107 -3 -2 573 -3
573 -103 3 c-76 2 -104 -1 -107 -10z"/>
<path d="M1893 3368 c-6 -7 -13 -24 -16 -38 -3 -14 -15 -50 -27 -80 -19 -51
-94 -262 -125 -355 -7 -22 -34 -98 -59 -170 -26 -71 -58 -161 -71 -200 -13
-38 -34 -95 -46 -125 -38 -99 -42 -95 96 -95 l119 0 36 118 c19 65 42 122 50
127 8 5 94 10 191 10 155 0 178 -2 191 -17 9 -10 28 -61 43 -113 15 -52 30
-102 34 -110 6 -12 33 -16 121 -18 62 -1 117 1 122 6 6 6 6 17 -1 28 -5 11
-22 55 -37 99 -15 44 -40 116 -56 160 -16 44 -40 112 -53 150 -13 39 -28 81
-34 95 -12 31 -56 154 -116 330 -25 74 -53 152 -62 173 l-16 37 -137 0 c-98 0
-140 -4 -147 -12z m193 -315 c20 -65 48 -151 60 -192 38 -119 45 -112 -103
-109 l-128 3 1 30 c3 64 111 385 130 385 1 0 19 -53 40 -117z"/>
<path d="M7165 3368 c-3 -7 -4 -249 -3 -538 l3 -525 201 -3 c171 -2 213 1 282
17 224 53 345 172 393 386 60 262 -40 513 -242 611 -115 57 -162 64 -407 64
-169 0 -224 -3 -227 -12z m470 -194 c69 -24 137 -94 160 -165 27 -86 31 -208
10 -287 -34 -127 -86 -182 -204 -218 -66 -20 -197 -19 -205 2 -3 9 -6 163 -6
343 0 248 3 330 13 340 16 18 164 8 232 -15z"/>
<path d="M2770 3255 c-11 -26 -23 -58 -26 -71 -7 -29 -46 -69 -103 -107 -40
-26 -42 -30 -39 -70 3 -41 4 -42 43 -45 22 -2 44 -7 48 -11 5 -5 8 -83 8 -174
-3 -303 20 -394 111 -454 40 -27 46 -28 173 -28 174 0 185 6 185 106 0 81 -5
85 -82 72 -67 -11 -112 -2 -138 28 -18 22 -19 39 -20 229 0 113 4 210 8 217 5
8 44 13 112 15 l105 3 3 71 c2 50 -1 74 -11 82 -7 6 -58 13 -113 14 l-99 3 -5
80 -5 80 -68 3 -67 3 -20 -46z"/>
<path d="M10153 3294 c-6 -3 -21 -36 -34 -75 -25 -77 -33 -87 -104 -132 -48
-31 -50 -34 -50 -77 l0 -45 40 -3 c22 -2 45 -8 52 -14 10 -8 13 -66 13 -232 0
-230 7 -281 48 -345 43 -65 142 -91 297 -76 103 9 121 26 118 110 -1 33 -2 63
-2 67 -1 4 -41 5 -90 1 -86 -6 -90 -5 -115 20 l-26 26 0 215 c0 250 -15 224
130 228 l85 3 0 80 0 80 -100 3 c-55 1 -104 7 -109 12 -5 5 -8 37 -7 70 3 80
-7 90 -78 89 -31 0 -61 -3 -68 -5z"/>
<path d="M3538 3121 c-118 -43 -195 -137 -230 -280 -54 -228 23 -423 204 -518
51 -26 58 -27 213 -28 134 0 168 3 210 19 28 11 56 26 63 35 14 17 17 147 3
155 -4 3 -34 -4 -66 -15 -32 -11 -95 -25 -140 -31 -71 -10 -89 -9 -136 6 -64
21 -74 29 -106 79 -17 27 -23 50 -21 75 l3 37 255 5 255 5 -2 115 c-1 139 -19
188 -97 265 -69 69 -144 95 -270 94 -59 0 -107 -7 -138 -18z m222 -156 c40
-21 70 -67 73 -112 l2 -38 -152 -3 -153 -3 0 28 c0 42 41 106 80 125 43 22
111 23 150 3z"/>
<path d="M5356 3118 c-110 -43 -175 -113 -217 -236 -14 -42 -19 -83 -19 -173
0 -105 3 -127 26 -184 35 -88 98 -156 182 -197 67 -32 68 -32 222 -33 128 0
164 3 205 19 28 10 56 26 63 34 7 9 12 43 12 79 0 50 -4 64 -18 72 -11 6 -24
6 -33 0 -35 -22 -131 -42 -209 -43 -76 -1 -90 2 -132 26 -52 31 -92 98 -86
145 l3 28 258 3 257 2 0 99 c0 190 -67 301 -219 361 -70 27 -224 27 -295 -2z
m224 -153 c40 -21 80 -82 80 -123 l0 -33 -152 3 -153 3 3 34 c4 47 39 100 76
117 42 18 110 17 146 -1z"/>
<path d="M6411 3118 c-25 -11 -66 -42 -92 -69 -53 -55 -59 -53 -81 26 l-14 50
-71 3 c-55 2 -74 -1 -87 -13 -14 -15 -16 -61 -16 -410 0 -349 2 -394 16 -399
24 -9 202 -7 208 3 3 4 7 117 8 249 l3 240 30 42 c42 59 104 90 180 90 33 0
66 4 73 8 8 5 13 40 15 103 l2 94 -65 2 c-48 1 -77 -4 -109 -19z"/>
<path d="M8861 3120 c-71 -26 -115 -61 -148 -118 -25 -43 -28 -56 -28 -142 0
-86 3 -99 27 -137 15 -22 42 -55 60 -72 l33 -30 -41 -40 c-60 -57 -65 -128
-13 -180 l29 -30 -29 -20 c-16 -12 -33 -21 -39 -21 -15 0 -76 -67 -84 -92 -20
-73 -6 -154 35 -200 67 -74 146 -98 316 -98 234 0 376 63 437 193 57 123 8
263 -111 313 -29 12 -84 19 -206 23 -185 8 -202 13 -197 65 l3 31 90 5 c118 8
181 25 246 69 73 49 109 118 109 207 0 35 -5 74 -11 88 -16 34 -1 51 56 65 40
10 45 15 51 47 4 20 2 46 -5 60 -10 23 -15 24 -104 24 -52 0 -168 2 -258 5
-147 5 -170 3 -218 -15z m220 -130 c10 -6 28 -29 40 -52 43 -85 4 -207 -72
-222 -109 -22 -165 50 -148 188 8 67 41 96 110 96 28 0 59 -5 70 -10z m113
-720 c69 -35 53 -109 -33 -152 -49 -25 -65 -28 -158 -28 -111 0 -149 11 -177
52 -22 31 -20 60 5 92 37 47 71 55 209 53 88 -1 134 -6 154 -17z"/>
<path d="M10865 3120 c-90 -26 -125 -43 -125 -60 0 -31 55 -129 73 -130 10 0
46 10 80 21 36 12 90 22 129 23 82 1 116 -20 137 -84 22 -69 14 -74 -130 -82
-226 -12 -329 -63 -364 -180 -36 -122 3 -244 98 -305 40 -26 48 -28 157 -28
104 0 119 2 155 24 22 14 50 35 62 48 34 36 60 30 74 -17 14 -47 28 -53 114
-48 l60 3 3 295 c3 257 1 303 -14 354 -25 81 -78 135 -165 164 -84 28 -252 29
-344 2z m296 -462 c17 -31 -4 -116 -38 -152 -98 -106 -272 -52 -235 73 21 68
81 99 194 100 59 1 69 -2 79 -21z"/>
<path d="M4711 3116 c-8 -9 -10 -126 -9 -412 l3 -399 90 -3 c50 -2 100 0 113
3 l22 5 0 394 c0 345 -2 397 -16 410 -21 21 -186 23 -203 2z"/>
<path d="M8270 3110 c-7 -12 -9 -153 -8 -412 l3 -393 110 0 110 0 3 393 c1
259 -1 400 -8 412 -9 18 -22 20 -105 20 -83 0 -96 -2 -105 -20z"/>
<path d="M9603 3122 c-15 -9 -20 -799 -5 -814 5 -5 53 -7 108 -6 l99 3 3 399
c1 286 -1 403 -9 412 -13 15 -174 20 -196 6z"/>
</g>
</svg>
